<?xml version="1.0" encoding="UTF-8" standalone="no"?>
<!-- Created with Inkscape (http://www.inkscape.org/) -->

<svg
   width="33.866665mm"
   height="33.866665mm"
   viewBox="0 0 33.866665 33.866665"
   version="1.1"
   id="svg1"
   sodipodi:docname="eye.svg"
   inkscape:version="1.3 (0e150ed6c4, 2023-07-21)"
   xmlns:inkscape="http://www.inkscape.org/namespaces/inkscape"
   xmlns:sodipodi="http://sodipodi.sourceforge.net/DTD/sodipodi-0.dtd"
   xmlns="http://www.w3.org/2000/svg"
   xmlns:svg="http://www.w3.org/2000/svg">
  <sodipodi:namedview
     id="namedview1"
     pagecolor="#ffffff"
     bordercolor="#666666"
     borderopacity="1.0"
     inkscape:showpageshadow="2"
     inkscape:pageopacity="0.0"
     inkscape:pagecheckerboard="0"
     inkscape:deskcolor="#d1d1d1"
     inkscape:document-units="mm"
     inkscape:zoom="3.9962644"
     inkscape:cx="18.64241"
     inkscape:cy="59.430502"
     inkscape:window-width="1920"
     inkscape:window-height="1006"
     inkscape:window-x="0"
     inkscape:window-y="0"
     inkscape:window-maximized="1"
     inkscape:current-layer="layer2" />
  <defs
     id="defs1" />
  <g
     inkscape:label="Layer 1"
     inkscape:groupmode="layer"
     id="layer1"
     transform="translate(-37.827236,-68.912987)"
     sodipodi:insensitive="true">
    <rect
       style="fill:none;fill-opacity:0.587116;stroke-width:0.465"
       id="rect1"
       width="33.866665"
       height="33.866665"
       x="37.827236"
       y="68.912987" />
  </g>
  <g
     inkscape:groupmode="layer"
     id="layer2"
     inkscape:label="Layer 2">
    <path
       d="m 16.782858,26.382247 q -3.234629,0 -5.753907,-0.777555 Q 8.5407747,24.796035 6.7679494,23.45864 5.0262262,22.090144 4.0309558,20.379523 q -0.1866132,0.09331 -0.4043286,0.09331 -0.4354308,0 -0.6842484,-0.311022 -0.2177154,-0.342124 -0.311022,-0.71535 -0.062204,-0.404329 -0.062204,-0.590942 0,-1.026373 0.1866132,-1.679519 0.1866132,-0.684248 0.466533,-1.399599 0.777555,-2.021643 2.2082562,-3.607855 1.4618034,-1.617314 3.3279353,-2.7369936 1.8661319,-1.1196792 3.9188769,-1.710621 2.083848,-0.5909418 4.136593,-0.5909418 4.261001,0 7.557834,2.0527452 3.296833,2.0527452 5.287374,5.7539072 0.404329,0.746452 0.808657,1.586212 0.435431,0.839759 0.435431,1.648416 0,0.404329 -0.155511,0.715351 -0.155511,0.311022 -0.653146,0.373226 -0.808657,1.959439 -2.581483,3.576753 -1.741723,1.617315 -4.447614,2.581483 -2.674789,0.964168 -6.282644,0.964168 z M 15.010032,17.51812 q 0.995271,0 1.648417,-0.684248 0.684248,-0.684249 0.684248,-1.648417 0,-0.964168 -0.684248,-1.617314 -0.653146,-0.684248 -1.648417,-0.684248 -0.964168,0 -1.648416,0.684248 -0.684249,0.653146 -0.684249,1.617314 0,0.964168 0.684249,1.648417 0.684248,0.684248 1.648416,0.684248 z m 1.772826,7.713346 q 3.359037,0 5.816111,-0.870862 2.457074,-0.870861 4.043286,-2.27046 1.617314,-1.430702 2.394869,-3.11022 -0.404328,-0.311022 -0.777555,-0.777555 -0.342124,-0.497636 -0.808657,-0.870862 -0.435431,-0.373226 -1.150781,-0.373226 -0.55984,0 -0.901964,0.528737 -0.311022,0.528737 -0.497635,1.212986 -0.186613,0.653146 -0.373227,1.119679 -0.528737,1.399599 -1.617314,2.332665 -1.088577,0.901964 -2.488176,1.368497 -1.399599,0.466533 -2.8303,0.466533 -1.741723,0 -3.421242,-0.653146 -1.648417,-0.684249 -2.861402,-1.83503 Q 10.126987,20.317318 9.7537605,18.79331 9.6293517,18.202369 9.5360451,17.455916 9.4738407,16.678361 9.2872275,16.118521 9.1006143,15.558682 8.5718769,15.558682 q -0.5909417,0 -0.9330659,0.311022 -0.311022,0.311022 -0.5598396,0.559839 -0.466533,0.497635 -0.9641682,1.492906 -0.4976352,0.964168 -1.1196792,1.679519 0.8708616,1.524007 2.4259716,2.8303 1.5862121,1.27519 3.9188774,2.052745 2.332665,0.746453 5.442885,0.746453 z"
       id="text2"
       style="font-size:31.1022px;line-height:1.25;-inkscape-font-specification:sans-serif;fill:#3d3846;stroke-width:0.264583"
       aria-label="ðŸ‘" />
  </g>
</svg>
