<?xml version="1.0" encoding="UTF-8" standalone="no"?>
<!-- Created with Inkscape (http://www.inkscape.org/) -->

<svg
   width="33.866665mm"
   height="33.866665mm"
   viewBox="0 0 33.866665 33.866665"
   version="1.1"
   id="svg1"
   sodipodi:docname="pencil.svg"
   inkscape:version="1.3 (0e150ed6c4, 2023-07-21)"
   xmlns:inkscape="http://www.inkscape.org/namespaces/inkscape"
   xmlns:sodipodi="http://sodipodi.sourceforge.net/DTD/sodipodi-0.dtd"
   xmlns="http://www.w3.org/2000/svg"
   xmlns:svg="http://www.w3.org/2000/svg">
  <sodipodi:namedview
     id="namedview1"
     pagecolor="#ffffff"
     bordercolor="#666666"
     borderopacity="1.0"
     inkscape:showpageshadow="2"
     inkscape:pageopacity="0.0"
     inkscape:pagecheckerboard="0"
     inkscape:deskcolor="#d1d1d1"
     inkscape:document-units="mm"
     inkscape:zoom="1.9981322"
     inkscape:cx="124.61638"
     inkscape:cy="85.830158"
     inkscape:window-width="1920"
     inkscape:window-height="1006"
     inkscape:window-x="0"
     inkscape:window-y="0"
     inkscape:window-maximized="1"
     inkscape:current-layer="layer2" />
  <defs
     id="defs1" />
  <g
     inkscape:label="Layer 1"
     inkscape:groupmode="layer"
     id="layer1"
     transform="translate(-37.827236,-68.912987)"
     sodipodi:insensitive="true">
    <rect
       style="fill:none;fill-opacity:0.587116;stroke-width:0.465"
       id="rect1"
       width="33.866665"
       height="33.866665"
       x="37.827236"
       y="68.912987" />
  </g>
  <g
     inkscape:groupmode="layer"
     id="layer2"
     inkscape:label="Layer 2">
    <path
       d="m 1.3287024,33.288464 q -0.2004576,0 -0.46773442,-0.133638 -0.26727679,-0.133638 -0.26727679,-0.601373 0,-0.167048 0.13363839,-0.80183 0.1336384,-0.634783 0.36750562,-1.470022 L 3.2998687,22.497164 Q 3.4669167,21.862381 3.8678319,21.394647 4.3021567,20.893503 4.9035295,20.29213 L 23.111761,2.4179947 q 0.467735,-0.4677344 1.135926,-0.668192 0.701602,-0.2338672 1.403204,-0.3006864 0.701601,-0.066819 1.135926,-0.066819 1.102517,0 1.70389,0.4677344 0.601372,0.4677344 1.236155,1.0356976 0.668192,0.5679632 1.336384,1.1359263 0.668192,0.5679632 1.202745,1.2027456 0.367506,0.4009152 0.434325,1.336384 0.100229,0.9354688 0.100229,1.7038896 0,0.9020591 -0.200458,1.6370703 -0.167048,0.7350111 -0.601372,1.1693361 L 13.422977,29.112265 q -0.167048,0.167048 -0.334096,0.367505 -0.167048,0.167048 -0.434324,0.267277 -0.768421,0.300686 -2.037986,0.735011 -1.2695648,0.467734 -2.7729968,0.935469 -1.4700223,0.501144 -2.8732255,0.902059 -1.3697936,0.434325 -2.3720816,0.701602 -0.9688783,0.267276 -1.2695647,0.267276 z M 7.7433454,21.695333 26.385902,3.0861867 q -0.801831,0.066819 -1.236155,0.1336384 -0.434325,0.066819 -0.701602,0.2338672 -0.267277,0.167048 -0.634782,0.501144 L 5.9058175,21.528285 q 0.4343248,0.03341 0.9020592,0.03341 0.5011439,-0.03341 0.9354687,0.133638 z M 11.418401,24.936065 30.495283,6.226689 Q 29.760271,5.5250874 28.858212,4.6898474 27.956153,3.8546075 27.321371,3.3200539 L 8.3113086,22.296706 q 0,0.133639 0,0.434325 0.03341,0.267277 0.066819,0.634782 0.03341,0.300687 0.066819,0.601373 0.03341,0.300687 0.03341,0.567963 0,0.100229 0.4343248,0.133639 0.4343248,0.03341 0.7350112,0.03341 0.4677344,0 0.9354684,0.100229 0.467735,0.06682 0.83524,0.133639 z m 0.935469,3.073683 18.074593,-17.640269 q 0.267277,-0.267276 0.501144,-0.5679629 0.233868,-0.3006864 0.233868,-0.6013728 0,-0.5679631 -0.133639,-1.1025167 Q 30.929607,7.563073 30.862788,6.9951098 L 12.086593,25.437209 q 0.100229,0.300686 0.167048,1.102516 0.06682,0.801831 0.100229,1.470023 z m -7.8178461,2.539129 6.4814621,-1.837528 q 0,-0.267276 0,-0.567963 0.03341,-0.300686 0,-0.601373 -0.03341,-0.434324 -0.06682,-0.76842 -0.03341,-0.334096 -0.100229,-0.367506 -0.133638,-0.100229 -0.501144,-0.133638 -0.334096,-0.06682 -0.6013726,-0.06682 H 9.0129102 q -0.501144,0 -1.002288,-0.100228 Q 7.5094782,26.005172 7.3424302,25.570847 7.275611,25.370389 7.1753822,24.802426 7.1085631,24.234463 7.0083343,23.733319 6.9415151,23.198765 6.8746959,23.098537 6.8078767,22.998308 6.3735519,22.964898 5.9726367,22.931489 5.5717215,22.931489 H 4.9369391 l -1.8709376,6.281004 q 0.501144,0.233868 0.83524,0.567964 0.3675056,0.300686 0.6347824,0.76842 z"
       id="text1"
       style="font-size:33.4096px;line-height:1.25;-inkscape-font-specification:sans-serif;stroke-width:0.264583;fill:#262626;fill-opacity:1"
       transform="scale(1.0192006,0.98116111)"
       aria-label="🖉" />
  </g>
</svg>
