<?xml version="1.0" encoding="UTF-8" standalone="no"?>
<!-- Created with Inkscape (http://www.inkscape.org/) -->

<svg
   width="33.866665mm"
   height="33.866665mm"
   viewBox="0 0 33.866665 33.866665"
   version="1.1"
   id="svg1"
   sodipodi:docname="play2.svg"
   inkscape:version="1.3 (0e150ed6c4, 2023-07-21)"
   xmlns:inkscape="http://www.inkscape.org/namespaces/inkscape"
   xmlns:sodipodi="http://sodipodi.sourceforge.net/DTD/sodipodi-0.dtd"
   xmlns="http://www.w3.org/2000/svg"
   xmlns:svg="http://www.w3.org/2000/svg">
  <sodipodi:namedview
     id="namedview1"
     pagecolor="#ffffff"
     bordercolor="#666666"
     borderopacity="1.0"
     inkscape:showpageshadow="2"
     inkscape:pageopacity="0.0"
     inkscape:pagecheckerboard="0"
     inkscape:deskcolor="#d1d1d1"
     inkscape:document-units="mm"
     inkscape:zoom="3.9962644"
     inkscape:cx="9.2586467"
     inkscape:cy="55.176529"
     inkscape:window-width="1920"
     inkscape:window-height="1006"
     inkscape:window-x="0"
     inkscape:window-y="0"
     inkscape:window-maximized="1"
     inkscape:current-layer="layer2" />
  <defs
     id="defs1" />
  <g
     inkscape:label="Layer 1"
     inkscape:groupmode="layer"
     id="layer1"
     transform="translate(-37.827236,-68.912987)"
     sodipodi:insensitive="true">
    <rect
       style="fill:none;fill-opacity:0.587116;stroke-width:0.465"
       id="rect1"
       width="33.866665"
       height="33.866665"
       x="37.827236"
       y="68.912987" />
  </g>
  <g
     inkscape:groupmode="layer"
     id="layer2"
     inkscape:label="Layer 2">
    <path
       style="color:#000000;fill:#33d17a;fill-opacity:1;-inkscape-stroke:none"
       d="M 17.062771,0.72054879 C 8.1244228,0.72054915 0.85378718,7.9892314 0.85378698,16.92758 c 6e-7,8.938349 7.27063602,16.208984 16.20898402,16.208985 8.938349,0 16.208984,-7.270636 16.208985,-16.208985 0,-8.9383488 -7.270636,-16.20703121 -16.208985,-16.20703121 z m 0,2.26367191 c 7.714254,0 13.94336,6.2291062 13.94336,13.9433593 -1e-6,7.714253 -6.229107,13.945313 -13.94336,13.945313 -7.7142524,-1e-6 -13.9433585,-6.23106 -13.943359,-13.945313 2e-7,-7.7142529 6.2291064,-13.943359 13.943359,-13.9433593 z"
       id="path1" />
    <path
       d="m 10.868719,6.9922181 16.62144,9.9363389 -16.62144,9.936339 z"
       id="text4"
       style="font-size:4.9389px;line-height:1.25;-inkscape-font-specification:sans-serif;fill:#33d17a;stroke-width:0.264584"
       aria-label="âµ" />
  </g>
</svg>
