<?xml version="1.0" encoding="UTF-8" standalone="no"?>
<!-- Created with Inkscape (http://www.inkscape.org/) -->

<svg
   width="33.866665mm"
   height="33.866665mm"
   viewBox="0 0 33.866665 33.866665"
   version="1.1"
   id="svg1"
   sodipodi:docname="subscription.svg"
   inkscape:version="1.3 (0e150ed6c4, 2023-07-21)"
   xmlns:inkscape="http://www.inkscape.org/namespaces/inkscape"
   xmlns:sodipodi="http://sodipodi.sourceforge.net/DTD/sodipodi-0.dtd"
   xmlns="http://www.w3.org/2000/svg"
   xmlns:svg="http://www.w3.org/2000/svg">
  <sodipodi:namedview
     id="namedview1"
     pagecolor="#ffffff"
     bordercolor="#666666"
     borderopacity="1.0"
     inkscape:showpageshadow="2"
     inkscape:pageopacity="0.0"
     inkscape:pagecheckerboard="0"
     inkscape:deskcolor="#d1d1d1"
     inkscape:document-units="mm"
     inkscape:zoom="3.9962644"
     inkscape:cx="120.48752"
     inkscape:cy="59.430502"
     inkscape:window-width="1920"
     inkscape:window-height="1006"
     inkscape:window-x="0"
     inkscape:window-y="0"
     inkscape:window-maximized="1"
     inkscape:current-layer="layer2" />
  <defs
     id="defs1" />
  <g
     inkscape:label="Layer 1"
     inkscape:groupmode="layer"
     id="layer1"
     transform="translate(-37.827236,-68.912987)"
     sodipodi:insensitive="true">
    <rect
       style="fill:none;fill-opacity:0.587116;stroke-width:0.465"
       id="rect1"
       width="33.866665"
       height="33.866665"
       x="37.827236"
       y="68.912987" />
  </g>
  <g
     inkscape:groupmode="layer"
     id="layer2"
     inkscape:label="Layer 2">
    <text
       xml:space="preserve"
       style="font-size:4.9389px;line-height:1.25;font-family:sans-serif;-inkscape-font-specification:sans-serif;stroke-width:0.264583"
       x="29.329996"
       y="9.0704498"
       id="text1"><tspan
         sodipodi:role="line"
         id="tspan1"
         style="fill:#e01b24;stroke:#c64600;stroke-width:0.264583"
         x="29.329996"
         y="9.0704498">⚡</tspan></text>
    <path
       d="m 10.650889,31.008194 q -0.235465,0.06309 -0.298556,-0.172367 -0.03155,-0.117732 0.0093,-0.15392 l 5.785508,-11.08963 -8.9678876,-0.221659 q -0.15388,-0.0092 -0.198042,-0.174063 -0.044164,-0.164821 0.043686,-0.213597 L 22.561729,2.6558828 q 0.04088,-0.036197 0.111445,-0.055104 0.07066,-0.018933 0.153881,0.00925 0.106828,0.02186 0.13837,0.139578 0.02524,0.094186 -0.02649,0.1837532 l -5.76837,11.0597999 8.896793,-0.137838 q 0.177431,0.0029 0.208974,0.12066 0.04416,0.164819 -0.05466,0.267012 L 10.755998,30.929557 q -0.03458,0.05974 -0.105088,0.07864 z"
       id="text2"
       style="font-size:4.9389px;line-height:1.25;-inkscape-font-specification:sans-serif;fill:#5e5c64;fill-opacity:1;stroke-width:0.264583"
       aria-label="🗲" />
  </g>
</svg>
